<?xml version="1.0" encoding="UTF-8"?>
<svg version="1.1" xmlns="http://www.w3.org/2000/svg" width="600" height="600">
<path d="M0 0 C7.59 0 15.18 0 23 0 C23 2.64 23 5.28 23 8 C27.95 8 32.9 8 38 8 C38 10.31 38 12.62 38 15 C40.31 15 42.62 15 45 15 C45 17.64 45 20.28 45 23 C47.64 23 50.28 23 53 23 C53 27.95 53 32.9 53 38 C50.36 38 47.72 38 45 38 C45 40.31 45 42.62 45 45 C37.74 45 30.48 45 23 45 C23 47.64 23 50.28 23 53 C25.31 53 27.62 53 30 53 C30 55.31 30 57.62 30 60 C32.64 60 35.28 60 38 60 C38 62.64 38 65.28 38 68 C40.31 68 42.62 68 45 68 C45 72.95 45 77.9 45 83 C47.64 83 50.28 83 53 83 C53 90.26 53 97.52 53 105 C60.26 105 67.52 105 75 105 C75 107.64 75 110.28 75 113 C79.95 113 84.9 113 90 113 C90 115.31 90 117.62 90 120 C94.95 120 99.9 120 105 120 C105 122.64 105 125.28 105 128 C109.95 128 114.9 128 120 128 C120 135.26 120 142.52 120 150 C117.69 150 115.38 150 113 150 C113 152.64 113 155.28 113 158 C108.05 158 103.1 158 98 158 C98 165.26 98 172.52 98 180 C95.36 180 92.72 180 90 180 C90 182.64 90 185.28 90 188 C82.74 188 75.48 188 68 188 C68 185.36 68 182.72 68 180 C63.05 180 58.1 180 53 180 C53 177.69 53 175.38 53 173 C48.05 173 43.1 173 38 173 C38 170.36 38 167.72 38 165 C35.36 165 32.72 165 30 165 C30 162.69 30 160.38 30 158 C27.69 158 25.38 158 23 158 C23 160.31 23 162.62 23 165 C18.05 165 13.1 165 8 165 C8 167.64 8 170.28 8 173 C-6.85 173 -21.7 173 -37 173 C-37 170.36 -37 167.72 -37 165 C-41.95 165 -46.9 165 -52 165 C-52 162.69 -52 160.38 -52 158 C-54.64 158 -57.28 158 -60 158 C-60 155.36 -60 152.72 -60 150 C-62.31 150 -64.62 150 -67 150 C-67 147.69 -67 145.38 -67 143 C-69.64 143 -72.28 143 -75 143 C-75 138.05 -75 133.1 -75 128 C-77.31 128 -79.62 128 -82 128 C-82 130.31 -82 132.62 -82 135 C-86.95 135 -91.9 135 -97 135 C-97 132.69 -97 130.38 -97 128 C-99.64 128 -102.28 128 -105 128 C-105 123.05 -105 118.1 -105 113 C-102.36 113 -99.72 113 -97 113 C-97 110.36 -97 107.72 -97 105 C-99.64 105 -102.28 105 -105 105 C-105 97.74 -105 90.48 -105 83 C-109.95 83 -114.9 83 -120 83 C-120 80.36 -120 77.72 -120 75 C-122.31 75 -124.62 75 -127 75 C-127 70.05 -127 65.1 -127 60 C-124.69 60 -122.38 60 -120 60 C-120 57.69 -120 55.38 -120 53 C-115.05 53 -110.1 53 -105 53 C-105 50.36 -105 47.72 -105 45 C-107.31 45 -109.62 45 -112 45 C-112 40.05 -112 35.1 -112 30 C-109.69 30 -107.38 30 -105 30 C-105 27.69 -105 25.38 -105 23 C-100.05 23 -95.1 23 -90 23 C-90 25.31 -90 27.62 -90 30 C-85.05 30 -80.1 30 -75 30 C-75 32.64 -75 35.28 -75 38 C-70.05 38 -65.1 38 -60 38 C-60 40.31 -60 42.62 -60 45 C-52.41 45 -44.82 45 -37 45 C-37 42.69 -37 40.38 -37 38 C-22.15 38 -7.3 38 8 38 C8 35.36 8 32.72 8 30 C5.36 30 2.72 30 0 30 C0 27.69 0 25.38 0 23 C-2.31 23 -4.62 23 -7 23 C-7 18.05 -7 13.1 -7 8 C-4.69 8 -2.38 8 0 8 C0 5.36 0 2.72 0 0 Z M-105 53 C-105 55.31 -105 57.62 -105 60 C-100.05 60 -95.1 60 -90 60 C-90 57.69 -90 55.38 -90 53 C-94.95 53 -99.9 53 -105 53 Z M-90 60 C-90 62.64 -90 65.28 -90 68 C-85.05 68 -80.1 68 -75 68 C-75 65.36 -75 62.72 -75 60 C-79.95 60 -84.9 60 -90 60 Z M68 143 C68 145.31 68 147.62 68 150 C72.95 150 77.9 150 83 150 C83 147.69 83 145.38 83 143 C78.05 143 73.1 143 68 143 Z M83 150 C83 152.64 83 155.28 83 158 C87.95 158 92.9 158 98 158 C98 155.36 98 152.72 98 150 C93.05 150 88.1 150 83 150 Z " fill="#8BB4A4" transform="translate(307,202)"/>
<path d="M0 0 C14.85 0 29.7 0 45 0 C45 2.64 45 5.28 45 8 C47.31 8 49.62 8 52 8 C52 12.95 52 17.9 52 23 C54.64 23 57.28 23 60 23 C60 30.26 60 37.52 60 45 C57.36 45 54.72 45 52 45 C52 49.95 52 54.9 52 60 C49.69 60 47.38 60 45 60 C45 62.64 45 65.28 45 68 C40.05 68 35.1 68 30 68 C30 70.31 30 72.62 30 75 C27.36 75 24.72 75 22 75 C22 77.64 22 80.28 22 83 C14.74 83 7.48 83 0 83 C0 80.36 0 77.72 0 75 C-4.95 75 -9.9 75 -15 75 C-15 72.69 -15 70.38 -15 68 C-17.64 68 -20.28 68 -23 68 C-23 65.36 -23 62.72 -23 60 C-25.31 60 -27.62 60 -30 60 C-30 57.69 -30 55.38 -30 53 C-32.64 53 -35.28 53 -38 53 C-38 48.05 -38 43.1 -38 38 C-35.36 38 -32.72 38 -30 38 C-30 33.05 -30 28.1 -30 23 C-27.69 23 -25.38 23 -23 23 C-23 20.36 -23 17.72 -23 15 C-20.36 15 -17.72 15 -15 15 C-15 12.69 -15 10.38 -15 8 C-10.05 8 -5.1 8 0 8 C0 5.36 0 2.72 0 0 Z " fill="#B4D5BD" transform="translate(270,247)"/>
<path d="M0 0 C2.64 0 5.28 0 8 0 C8 7.26 8 14.52 8 22 C15.26 22 22.52 22 30 22 C30 24.64 30 27.28 30 30 C34.95 30 39.9 30 45 30 C45 32.31 45 34.62 45 37 C49.95 37 54.9 37 60 37 C60 39.64 60 42.28 60 45 C64.95 45 69.9 45 75 45 C75 52.26 75 59.52 75 67 C72.69 67 70.38 67 68 67 C68 69.64 68 72.28 68 75 C63.05 75 58.1 75 53 75 C53 82.26 53 89.52 53 97 C50.36 97 47.72 97 45 97 C45 99.64 45 102.28 45 105 C37.74 105 30.48 105 23 105 C23 102.36 23 99.72 23 97 C18.05 97 13.1 97 8 97 C8 94.69 8 92.38 8 90 C3.05 90 -1.9 90 -7 90 C-7 87.36 -7 84.72 -7 82 C-9.64 82 -12.28 82 -15 82 C-15 79.69 -15 77.38 -15 75 C-17.31 75 -19.62 75 -22 75 C-22 62.46 -22 49.92 -22 37 C-19.69 37 -17.38 37 -15 37 C-15 34.69 -15 32.38 -15 30 C-12.36 30 -9.72 30 -7 30 C-7 27.36 -7 24.72 -7 22 C-4.69 22 -2.38 22 0 22 C0 14.74 0 7.48 0 0 Z M23 60 C23 62.31 23 64.62 23 67 C27.95 67 32.9 67 38 67 C38 64.69 38 62.38 38 60 C33.05 60 28.1 60 23 60 Z M38 67 C38 69.64 38 72.28 38 75 C42.95 75 47.9 75 53 75 C53 72.36 53 69.72 53 67 C48.05 67 43.1 67 38 67 Z " fill="#524A4A" transform="translate(352,285)"/>
<path d="M0 0 C4.95 0 9.9 0 15 0 C15 2.31 15 4.62 15 7 C19.95 7 24.9 7 30 7 C30 9.64 30 12.28 30 15 C34.95 15 39.9 15 45 15 C45 17.31 45 19.62 45 22 C52.59 22 60.18 22 68 22 C68 24.64 68 27.28 68 30 C63.05 30 58.1 30 53 30 C53 32.31 53 34.62 53 37 C50.36 37 47.72 37 45 37 C45 39.64 45 42.28 45 45 C42.69 45 40.38 45 38 45 C38 49.95 38 54.9 38 60 C35.36 60 32.72 60 30 60 C30 64.95 30 69.9 30 75 C32.64 75 35.28 75 38 75 C38 77.31 38 79.62 38 82 C35.36 82 32.72 82 30 82 C30 84.64 30 87.28 30 90 C32.64 90 35.28 90 38 90 C38 92.31 38 94.62 38 97 C35.36 97 32.72 97 30 97 C30 99.64 30 102.28 30 105 C27.69 105 25.38 105 23 105 C23 107.31 23 109.62 23 112 C18.05 112 13.1 112 8 112 C8 109.69 8 107.38 8 105 C5.36 105 2.72 105 0 105 C0 100.05 0 95.1 0 90 C2.64 90 5.28 90 8 90 C8 87.36 8 84.72 8 82 C5.36 82 2.72 82 0 82 C0 74.74 0 67.48 0 60 C-4.95 60 -9.9 60 -15 60 C-15 57.36 -15 54.72 -15 52 C-17.31 52 -19.62 52 -22 52 C-22 47.05 -22 42.1 -22 37 C-19.69 37 -17.38 37 -15 37 C-15 34.69 -15 32.38 -15 30 C-10.05 30 -5.1 30 0 30 C0 27.36 0 24.72 0 22 C-2.31 22 -4.62 22 -7 22 C-7 17.05 -7 12.1 -7 7 C-4.69 7 -2.38 7 0 7 C0 4.69 0 2.38 0 0 Z M0 30 C0 32.31 0 34.62 0 37 C4.95 37 9.9 37 15 37 C15 34.69 15 32.38 15 30 C10.05 30 5.1 30 0 30 Z M15 37 C15 39.64 15 42.28 15 45 C19.95 45 24.9 45 30 45 C30 42.36 30 39.72 30 37 C25.05 37 20.1 37 15 37 Z " fill="#524A4A" transform="translate(202,225)"/>
<path d="M0 0 C7.59 0 15.18 0 23 0 C23 2.64 23 5.28 23 8 C27.95 8 32.9 8 38 8 C38 10.31 38 12.62 38 15 C40.31 15 42.62 15 45 15 C45 17.64 45 20.28 45 23 C47.64 23 50.28 23 53 23 C53 27.95 53 32.9 53 38 C50.36 38 47.72 38 45 38 C45 40.31 45 42.62 45 45 C37.74 45 30.48 45 23 45 C23 47.64 23 50.28 23 53 C18.05 53 13.1 53 8 53 C8 50.36 8 47.72 8 45 C-6.85 45 -21.7 45 -37 45 C-37 42.69 -37 40.38 -37 38 C-22.15 38 -7.3 38 8 38 C8 35.36 8 32.72 8 30 C5.36 30 2.72 30 0 30 C0 27.69 0 25.38 0 23 C-2.31 23 -4.62 23 -7 23 C-7 18.05 -7 13.1 -7 8 C-4.69 8 -2.38 8 0 8 C0 5.36 0 2.72 0 0 Z " fill="#101010" transform="translate(307,202)"/>
<path d="M0 0 C12.21 0 24.42 0 37 0 C37 2.31 37 4.62 37 7 C39.64 7 42.28 7 45 7 C45 9.64 45 12.28 45 15 C47.31 15 49.62 15 52 15 C52 22.26 52 29.52 52 37 C49.69 37 47.38 37 45 37 C45 39.64 45 42.28 45 45 C42.36 45 39.72 45 37 45 C37 47.31 37 49.62 37 52 C29.74 52 22.48 52 15 52 C15 49.69 15 47.38 15 45 C12.36 45 9.72 45 7 45 C7 42.36 7 39.72 7 37 C4.69 37 2.38 37 0 37 C0 29.74 0 22.48 0 15 C-2.64 15 -5.28 15 -8 15 C-8 12.36 -8 9.72 -8 7 C-5.36 7 -2.72 7 0 7 C0 4.69 0 2.38 0 0 Z " fill="#FFFFFF" transform="translate(255,255)"/>
<path d="M0 0 C4.95 0 9.9 0 15 0 C15 2.64 15 5.28 15 8 C17.64 8 20.28 8 23 8 C23 10.31 23 12.62 23 15 C27.95 15 32.9 15 38 15 C38 17.64 38 20.28 38 23 C45.26 23 52.52 23 60 23 C60 20.36 60 17.72 60 15 C62.64 15 65.28 15 68 15 C68 19.95 68 24.9 68 30 C65.36 30 62.72 30 60 30 C60 32.64 60 35.28 60 38 C62.64 38 65.28 38 68 38 C68 40.31 68 42.62 68 45 C53.15 45 38.3 45 23 45 C23 47.64 23 50.28 23 53 C20.36 53 17.72 53 15 53 C15 50.36 15 47.72 15 45 C12.69 45 10.38 45 8 45 C8 42.69 8 40.38 8 38 C5.36 38 2.72 38 0 38 C0 30.41 0 22.82 0 15 C2.64 15 5.28 15 8 15 C8 12.69 8 10.38 8 8 C5.36 8 2.72 8 0 8 C0 5.36 0 2.72 0 0 Z " fill="#8BB4A4" transform="translate(232,307)"/>
<path d="M0 0 C4.95 0 9.9 0 15 0 C15 2.31 15 4.62 15 7 C19.95 7 24.9 7 30 7 C30 14.59 30 22.18 30 30 C32.64 30 35.28 30 38 30 C38 47.16 38 64.32 38 82 C33.05 82 28.1 82 23 82 C23 79.69 23 77.38 23 75 C20.36 75 17.72 75 15 75 C15 70.05 15 65.1 15 60 C17.64 60 20.28 60 23 60 C23 57.36 23 54.72 23 52 C20.36 52 17.72 52 15 52 C15 44.74 15 37.48 15 30 C10.05 30 5.1 30 0 30 C0 27.36 0 24.72 0 22 C-2.31 22 -4.62 22 -7 22 C-7 17.05 -7 12.1 -7 7 C-4.69 7 -2.38 7 0 7 C0 4.69 0 2.38 0 0 Z " fill="#524A4A" transform="translate(187,255)"/>
<path d="M0 0 C4.95 0 9.9 0 15 0 C15 2.64 15 5.28 15 8 C12.36 8 9.72 8 7 8 C7 10.31 7 12.62 7 15 C9.64 15 12.28 15 15 15 C15 17.64 15 20.28 15 23 C12.36 23 9.72 23 7 23 C7 25.31 7 27.62 7 30 C9.64 30 12.28 30 15 30 C15 37.59 15 45.18 15 53 C0.15 53 -14.7 53 -30 53 C-30 50.36 -30 47.72 -30 45 C-34.95 45 -39.9 45 -45 45 C-45 40.05 -45 35.1 -45 30 C-30.15 30 -15.3 30 0 30 C0 27.69 0 25.38 0 23 C-2.64 23 -5.28 23 -8 23 C-8 20.36 -8 17.72 -8 15 C-5.36 15 -2.72 15 0 15 C0 10.05 0 5.1 0 0 Z " fill="#B4D5BD" transform="translate(300,322)"/>
<path d="M0 0 C4.95 0 9.9 0 15 0 C15 7.26 15 14.52 15 22 C17.31 22 19.62 22 22 22 C22 24.64 22 27.28 22 30 C24.64 30 27.28 30 30 30 C30 34.95 30 39.9 30 45 C39.9 45 49.8 45 60 45 C60 47.31 60 49.62 60 52 C57.36 52 54.72 52 52 52 C52 54.64 52 57.28 52 60 C44.74 60 37.48 60 30 60 C30 57.36 30 54.72 30 52 C25.05 52 20.1 52 15 52 C15 49.69 15 47.38 15 45 C12.36 45 9.72 45 7 45 C7 42.36 7 39.72 7 37 C4.69 37 2.38 37 0 37 C0 34.69 0 32.38 0 30 C-2.64 30 -5.28 30 -8 30 C-8 25.05 -8 20.1 -8 15 C-5.36 15 -2.72 15 0 15 C0 10.05 0 5.1 0 0 Z " fill="#B4D5BD" transform="translate(240,270)"/>
<path d="M0 0 C4.95 0 9.9 0 15 0 C15 2.31 15 4.62 15 7 C19.95 7 24.9 7 30 7 C30 9.64 30 12.28 30 15 C32.64 15 35.28 15 38 15 C38 12.36 38 9.72 38 7 C40.31 7 42.62 7 45 7 C45 4.69 45 2.38 45 0 C52.59 0 60.18 0 68 0 C68 7.26 68 14.52 68 22 C65.36 22 62.72 22 60 22 C60 24.64 60 27.28 60 30 C52.74 30 45.48 30 38 30 C38 27.36 38 24.72 38 22 C33.05 22 28.1 22 23 22 C23 19.69 23 17.38 23 15 C18.05 15 13.1 15 8 15 C8 12.36 8 9.72 8 7 C5.36 7 2.72 7 0 7 C0 4.69 0 2.38 0 0 Z " fill="#EE1800" transform="translate(337,360)"/>
<path d="M0 0 C4.95 0 9.9 0 15 0 C15 2.64 15 5.28 15 8 C12.69 8 10.38 8 8 8 C8 12.95 8 17.9 8 23 C5.36 23 2.72 23 0 23 C0 27.95 0 32.9 0 38 C2.64 38 5.28 38 8 38 C8 40.31 8 42.62 8 45 C5.36 45 2.72 45 0 45 C0 47.64 0 50.28 0 53 C2.64 53 5.28 53 8 53 C8 55.31 8 57.62 8 60 C5.36 60 2.72 60 0 60 C0 62.64 0 65.28 0 68 C-2.31 68 -4.62 68 -7 68 C-7 53.15 -7 38.3 -7 23 C-9.64 23 -12.28 23 -15 23 C-15 18.05 -15 13.1 -15 8 C-10.05 8 -5.1 8 0 8 C0 5.36 0 2.72 0 0 Z " fill="#393131" transform="translate(232,262)"/>
<path d="M0 0 C4.95 0 9.9 0 15 0 C15 14.85 15 29.7 15 45 C10.05 45 5.1 45 0 45 C0 42.69 0 40.38 0 38 C-2.64 38 -5.28 38 -8 38 C-8 33.05 -8 28.1 -8 23 C-5.36 23 -2.72 23 0 23 C0 15.41 0 7.82 0 0 Z " fill="#8B8B8B" transform="translate(210,292)"/>
<path d="M0 0 C7.59 0 15.18 0 23 0 C23 2.64 23 5.28 23 8 C27.95 8 32.9 8 38 8 C38 15.26 38 22.52 38 30 C35.36 30 32.72 30 30 30 C30 27.69 30 25.38 30 23 C27.69 23 25.38 23 23 23 C23 20.36 23 17.72 23 15 C13.1 15 3.2 15 -7 15 C-7 12.69 -7 10.38 -7 8 C-4.69 8 -2.38 8 0 8 C0 5.36 0 2.72 0 0 Z " fill="#D5D5D5" transform="translate(307,202)"/>
<path d="M0 0 C7.26 0 14.52 0 22 0 C22 7.26 22 14.52 22 22 C19.69 22 17.38 22 15 22 C15 24.64 15 27.28 15 30 C10.05 30 5.1 30 0 30 C0 25.05 0 20.1 0 15 C-2.64 15 -5.28 15 -8 15 C-8 12.36 -8 9.72 -8 7 C-5.36 7 -2.72 7 0 7 C0 4.69 0 2.38 0 0 Z " fill="#2983AC" transform="translate(405,330)"/>
<path d="M0 0 C4.95 0 9.9 0 15 0 C15 2.64 15 5.28 15 8 C12.36 8 9.72 8 7 8 C7 10.31 7 12.62 7 15 C9.64 15 12.28 15 15 15 C15 17.64 15 20.28 15 23 C12.36 23 9.72 23 7 23 C7 25.31 7 27.62 7 30 C9.64 30 12.28 30 15 30 C15 32.64 15 35.28 15 38 C7.41 38 -0.18 38 -8 38 C-8 35.36 -8 32.72 -8 30 C-5.36 30 -2.72 30 0 30 C0 27.69 0 25.38 0 23 C-2.64 23 -5.28 23 -8 23 C-8 20.36 -8 17.72 -8 15 C-5.36 15 -2.72 15 0 15 C0 10.05 0 5.1 0 0 Z " fill="#524A4A" transform="translate(300,322)"/>
<path d="M0 0 C2.64 0 5.28 0 8 0 C8 7.26 8 14.52 8 22 C15.26 22 22.52 22 30 22 C30 24.64 30 27.28 30 30 C17.79 30 5.58 30 -7 30 C-7 27.36 -7 24.72 -7 22 C-4.69 22 -2.38 22 0 22 C0 14.74 0 7.48 0 0 Z " fill="#393131" transform="translate(352,285)"/>
<path d="M0 0 C4.95 0 9.9 0 15 0 C15 7.26 15 14.52 15 22 C7.74 22 0.48 22 -7 22 C-7 17.05 -7 12.1 -7 7 C-4.69 7 -2.38 7 0 7 C0 4.69 0 2.38 0 0 Z " fill="#2983AC" transform="translate(187,255)"/>
<path d="M0 0 C4.95 0 9.9 0 15 0 C15 7.26 15 14.52 15 22 C7.74 22 0.48 22 -7 22 C-7 17.05 -7 12.1 -7 7 C-4.69 7 -2.38 7 0 7 C0 4.69 0 2.38 0 0 Z " fill="#EE1800" transform="translate(202,225)"/>
<path d="M0 0 C4.95 0 9.9 0 15 0 C15 2.31 15 4.62 15 7 C19.95 7 24.9 7 30 7 C30 9.64 30 12.28 30 15 C32.64 15 35.28 15 38 15 C38 17.31 38 19.62 38 22 C33.05 22 28.1 22 23 22 C23 19.69 23 17.38 23 15 C18.05 15 13.1 15 8 15 C8 12.36 8 9.72 8 7 C5.36 7 2.72 7 0 7 C0 4.69 0 2.38 0 0 Z " fill="#101010" transform="translate(337,360)"/>
<path d="M0 0 C2.31 0 4.62 0 7 0 C7 2.64 7 5.28 7 8 C9.64 8 12.28 8 15 8 C15 10.31 15 12.62 15 15 C12.36 15 9.72 15 7 15 C7 17.64 7 20.28 7 23 C9.64 23 12.28 23 15 23 C15 25.31 15 27.62 15 30 C12.36 30 9.72 30 7 30 C7 32.64 7 35.28 7 38 C4.69 38 2.38 38 0 38 C0 25.46 0 12.92 0 0 Z " fill="#524A4A" transform="translate(225,292)"/>
<path d="M0 0 C14.85 0 29.7 0 45 0 C45 2.64 45 5.28 45 8 C30.15 8 15.3 8 0 8 C0 5.36 0 2.72 0 0 Z " fill="#524A4A" transform="translate(270,367)"/>
<path d="M0 0 C4.95 0 9.9 0 15 0 C15 2.31 15 4.62 15 7 C17.64 7 20.28 7 23 7 C23 9.64 23 12.28 23 15 C13.1 15 3.2 15 -7 15 C-7 12.36 -7 9.72 -7 7 C-4.69 7 -2.38 7 0 7 C0 4.69 0 2.38 0 0 Z " fill="#101010" transform="translate(367,330)"/>
<path d="M0 0 C2.31 0 4.62 0 7 0 C7 2.64 7 5.28 7 8 C9.64 8 12.28 8 15 8 C15 12.95 15 17.9 15 23 C7.41 23 -0.18 23 -8 23 C-8 20.36 -8 17.72 -8 15 C-5.36 15 -2.72 15 0 15 C0 10.05 0 5.1 0 0 Z " fill="#8B8B8B" transform="translate(345,217)"/>
<path d="M0 0 C9.9 0 19.8 0 30 0 C30 2.64 30 5.28 30 8 C32.31 8 34.62 8 37 8 C37 10.31 37 12.62 37 15 C32.05 15 27.1 15 22 15 C22 12.69 22 10.38 22 8 C14.74 8 7.48 8 0 8 C0 5.36 0 2.72 0 0 Z " fill="#524A4A" transform="translate(300,217)"/>
<path d="M0 0 C2.31 0 4.62 0 7 0 C7 9.9 7 19.8 7 30 C9.64 30 12.28 30 15 30 C15 32.64 15 35.28 15 38 C10.05 38 5.1 38 0 38 C0 25.46 0 12.92 0 0 Z " fill="#393131" transform="translate(330,322)"/>
<path d="M0 0 C14.85 0 29.7 0 45 0 C45 2.31 45 4.62 45 7 C30.15 7 15.3 7 0 7 C0 4.69 0 2.38 0 0 Z " fill="#101010" transform="translate(270,240)"/>
<path d="M0 0 C4.95 0 9.9 0 15 0 C15 7.59 15 15.18 15 23 C12.36 23 9.72 23 7 23 C7 20.36 7 17.72 7 15 C4.69 15 2.38 15 0 15 C0 10.05 0 5.1 0 0 Z " fill="#B4B4B4" transform="translate(210,292)"/>
<path d="M0 0 C4.95 0 9.9 0 15 0 C15 7.26 15 14.52 15 22 C10.05 22 5.1 22 0 22 C0 19.69 0 17.38 0 15 C2.64 15 5.28 15 8 15 C8 12.36 8 9.72 8 7 C5.36 7 2.72 7 0 7 C0 4.69 0 2.38 0 0 Z " fill="#524A4A" transform="translate(307,330)"/>
<path d="M0 0 C2.64 0 5.28 0 8 0 C8 9.9 8 19.8 8 30 C5.36 30 2.72 30 0 30 C0 20.1 0 10.2 0 0 Z " fill="#8BB4A4" transform="translate(247,270)"/>
<path d="M0 0 C4.95 0 9.9 0 15 0 C15 2.64 15 5.28 15 8 C12.69 8 10.38 8 8 8 C8 12.95 8 17.9 8 23 C5.36 23 2.72 23 0 23 C0 15.41 0 7.82 0 0 Z " fill="#101010" transform="translate(232,262)"/>
<path d="M0 0 C9.9 0 19.8 0 30 0 C30 2.64 30 5.28 30 8 C20.1 8 10.2 8 0 8 C0 5.36 0 2.72 0 0 Z " fill="#8BB4A4" transform="translate(270,247)"/>
<path d="M0 0 C4.95 0 9.9 0 15 0 C15 7.26 15 14.52 15 22 C12.36 22 9.72 22 7 22 C7 17.05 7 12.1 7 7 C4.69 7 2.38 7 0 7 C0 4.69 0 2.38 0 0 Z " fill="#393131" transform="translate(390,360)"/>
<path d="M0 0 C4.95 0 9.9 0 15 0 C15 2.31 15 4.62 15 7 C12.36 7 9.72 7 7 7 C7 9.64 7 12.28 7 15 C2.05 15 -2.9 15 -8 15 C-8 12.36 -8 9.72 -8 7 C-5.36 7 -2.72 7 0 7 C0 4.69 0 2.38 0 0 Z " fill="#D5F6DE" transform="translate(255,255)"/>
<path d="M0 0 C4.95 0 9.9 0 15 0 C15 7.26 15 14.52 15 22 C12.69 22 10.38 22 8 22 C8 17.05 8 12.1 8 7 C5.36 7 2.72 7 0 7 C0 4.69 0 2.38 0 0 Z " fill="#393131" transform="translate(412,330)"/>
<path d="M0 0 C7.59 0 15.18 0 23 0 C23 2.64 23 5.28 23 8 C15.41 8 7.82 8 0 8 C0 5.36 0 2.72 0 0 Z " fill="#524A4A" transform="translate(292,352)"/>
<path d="M0 0 C7.26 0 14.52 0 22 0 C22 2.64 22 5.28 22 8 C14.74 8 7.48 8 0 8 C0 5.36 0 2.72 0 0 Z " fill="#101010" transform="translate(375,382)"/>
<path d="M0 0 C7.26 0 14.52 0 22 0 C22 2.64 22 5.28 22 8 C14.74 8 7.48 8 0 8 C0 5.36 0 2.72 0 0 Z " fill="#101010" transform="translate(270,367)"/>
<path d="M0 0 C7.26 0 14.52 0 22 0 C22 2.64 22 5.28 22 8 C14.74 8 7.48 8 0 8 C0 5.36 0 2.72 0 0 Z " fill="#5A8362" transform="translate(270,307)"/>
<path d="M0 0 C2.64 0 5.28 0 8 0 C8 7.26 8 14.52 8 22 C5.36 22 2.72 22 0 22 C0 14.74 0 7.48 0 0 Z " fill="#101010" transform="translate(352,285)"/>
<path d="M0 0 C2.64 0 5.28 0 8 0 C8 7.26 8 14.52 8 22 C5.36 22 2.72 22 0 22 C0 14.74 0 7.48 0 0 Z " fill="#5A8362" transform="translate(307,270)"/>
<path d="M0 0 C2.64 0 5.28 0 8 0 C8 4.95 8 9.9 8 15 C3.05 15 -1.9 15 -7 15 C-7 12.69 -7 10.38 -7 8 C-4.69 8 -2.38 8 0 8 C0 5.36 0 2.72 0 0 Z " fill="#B4B4B4" transform="translate(307,202)"/>
<path d="M0 0 C2.31 0 4.62 0 7 0 C7 2.64 7 5.28 7 8 C9.64 8 12.28 8 15 8 C15 10.31 15 12.62 15 15 C10.05 15 5.1 15 0 15 C0 10.05 0 5.1 0 0 Z " fill="#524A4A" transform="translate(285,337)"/>
<path d="M0 0 C4.95 0 9.9 0 15 0 C15 2.31 15 4.62 15 7 C12.36 7 9.72 7 7 7 C7 9.64 7 12.28 7 15 C4.69 15 2.38 15 0 15 C0 10.05 0 5.1 0 0 Z " fill="#101010" transform="translate(225,315)"/>
<path d="M0 0 C7.26 0 14.52 0 22 0 C22 2.31 22 4.62 22 7 C14.74 7 7.48 7 0 7 C0 4.69 0 2.38 0 0 Z " fill="#524A4A" transform="translate(270,240)"/>
<path d="M0 0 C4.95 0 9.9 0 15 0 C15 2.64 15 5.28 15 8 C10.05 8 5.1 8 0 8 C0 5.36 0 2.72 0 0 Z " fill="#101010" transform="translate(405,352)"/>
<path d="M0 0 C4.95 0 9.9 0 15 0 C15 2.64 15 5.28 15 8 C10.05 8 5.1 8 0 8 C0 5.36 0 2.72 0 0 Z " fill="#393131" transform="translate(375,352)"/>
<path d="M0 0 C2.64 0 5.28 0 8 0 C8 4.95 8 9.9 8 15 C5.36 15 2.72 15 0 15 C0 10.05 0 5.1 0 0 Z " fill="#101010" transform="translate(232,330)"/>
<path d="M0 0 C4.95 0 9.9 0 15 0 C15 2.64 15 5.28 15 8 C10.05 8 5.1 8 0 8 C0 5.36 0 2.72 0 0 Z " fill="#393131" transform="translate(397,322)"/>
<path d="M0 0 C2.64 0 5.28 0 8 0 C8 4.95 8 9.9 8 15 C5.36 15 2.72 15 0 15 C0 10.05 0 5.1 0 0 Z " fill="#524A4A" transform="translate(202,315)"/>
<path d="M0 0 C2.64 0 5.28 0 8 0 C8 4.95 8 9.9 8 15 C5.36 15 2.72 15 0 15 C0 10.05 0 5.1 0 0 Z " fill="#524A4A" transform="translate(202,292)"/>
<path d="M0 0 C2.64 0 5.28 0 8 0 C8 4.95 8 9.9 8 15 C5.36 15 2.72 15 0 15 C0 10.05 0 5.1 0 0 Z " fill="#8BB4A4" transform="translate(232,285)"/>
<path d="M0 0 C4.95 0 9.9 0 15 0 C15 2.64 15 5.28 15 8 C10.05 8 5.1 8 0 8 C0 5.36 0 2.72 0 0 Z " fill="#101010" transform="translate(187,277)"/>
<path d="M0 0 C4.95 0 9.9 0 15 0 C15 2.64 15 5.28 15 8 C10.05 8 5.1 8 0 8 C0 5.36 0 2.72 0 0 Z " fill="#393131" transform="translate(202,262)"/>
<path d="M0 0 C4.95 0 9.9 0 15 0 C15 2.64 15 5.28 15 8 C10.05 8 5.1 8 0 8 C0 5.36 0 2.72 0 0 Z " fill="#101010" transform="translate(315,247)"/>
<path d="M0 0 C4.95 0 9.9 0 15 0 C15 2.64 15 5.28 15 8 C10.05 8 5.1 8 0 8 C0 5.36 0 2.72 0 0 Z " fill="#5A8362" transform="translate(255,247)"/>
<path d="M0 0 C4.95 0 9.9 0 15 0 C15 2.64 15 5.28 15 8 C10.05 8 5.1 8 0 8 C0 5.36 0 2.72 0 0 Z " fill="#393131" transform="translate(202,247)"/>
<path d="M0 0 C2.64 0 5.28 0 8 0 C8 4.95 8 9.9 8 15 C5.36 15 2.72 15 0 15 C0 10.05 0 5.1 0 0 Z " fill="#101010" transform="translate(352,225)"/>
<path d="M0 0 C4.95 0 9.9 0 15 0 C15 2.64 15 5.28 15 8 C10.05 8 5.1 8 0 8 C0 5.36 0 2.72 0 0 Z " fill="#393131" transform="translate(217,232)"/>
<path d="M0 0 C4.95 0 9.9 0 15 0 C15 2.64 15 5.28 15 8 C10.05 8 5.1 8 0 8 C0 5.36 0 2.72 0 0 Z " fill="#8B8B8B" transform="translate(300,217)"/>
<path d="M0 0 C4.95 0 9.9 0 15 0 C15 2.64 15 5.28 15 8 C10.05 8 5.1 8 0 8 C0 5.36 0 2.72 0 0 Z " fill="#B4B4B4" transform="translate(315,202)"/>
<path d="M0 0 C4.95 0 9.9 0 15 0 C15 2.31 15 4.62 15 7 C10.05 7 5.1 7 0 7 C0 4.69 0 2.38 0 0 Z " fill="#101010" transform="translate(315,360)"/>
<path d="M0 0 C4.95 0 9.9 0 15 0 C15 2.31 15 4.62 15 7 C10.05 7 5.1 7 0 7 C0 4.69 0 2.38 0 0 Z " fill="#524A4A" transform="translate(255,360)"/>
<path d="M0 0 C4.95 0 9.9 0 15 0 C15 2.31 15 4.62 15 7 C10.05 7 5.1 7 0 7 C0 4.69 0 2.38 0 0 Z " fill="#101010" transform="translate(390,345)"/>
<path d="M0 0 C4.95 0 9.9 0 15 0 C15 2.31 15 4.62 15 7 C10.05 7 5.1 7 0 7 C0 4.69 0 2.38 0 0 Z " fill="#393131" transform="translate(360,345)"/>
<path d="M0 0 C4.95 0 9.9 0 15 0 C15 2.31 15 4.62 15 7 C10.05 7 5.1 7 0 7 C0 4.69 0 2.38 0 0 Z " fill="#101010" transform="translate(210,330)"/>
<path d="M0 0 C4.95 0 9.9 0 15 0 C15 2.31 15 4.62 15 7 C10.05 7 5.1 7 0 7 C0 4.69 0 2.38 0 0 Z " fill="#393131" transform="translate(382,315)"/>
<path d="M0 0 C2.31 0 4.62 0 7 0 C7 4.95 7 9.9 7 15 C4.69 15 2.38 15 0 15 C0 10.05 0 5.1 0 0 Z " fill="#FFFFFF" transform="translate(210,292)"/>
<path d="M0 0 C2.31 0 4.62 0 7 0 C7 4.95 7 9.9 7 15 C4.69 15 2.38 15 0 15 C0 10.05 0 5.1 0 0 Z " fill="#101010" transform="translate(345,270)"/>
<path d="M0 0 C2.31 0 4.62 0 7 0 C7 4.95 7 9.9 7 15 C4.69 15 2.38 15 0 15 C0 10.05 0 5.1 0 0 Z " fill="#D5F6DE" transform="translate(240,270)"/>
<path d="M0 0 C2.31 0 4.62 0 7 0 C7 4.95 7 9.9 7 15 C4.69 15 2.38 15 0 15 C0 10.05 0 5.1 0 0 Z " fill="#101010" transform="translate(180,262)"/>
<path d="M0 0 C4.95 0 9.9 0 15 0 C15 2.31 15 4.62 15 7 C10.05 7 5.1 7 0 7 C0 4.69 0 2.38 0 0 Z " fill="#D5D5D5" transform="translate(255,255)"/>
<path d="M0 0 C4.95 0 9.9 0 15 0 C15 2.31 15 4.62 15 7 C10.05 7 5.1 7 0 7 C0 4.69 0 2.38 0 0 Z " fill="#101010" transform="translate(217,255)"/>
<path d="M0 0 C4.95 0 9.9 0 15 0 C15 2.31 15 4.62 15 7 C10.05 7 5.1 7 0 7 C0 4.69 0 2.38 0 0 Z " fill="#393131" transform="translate(187,255)"/>
<path d="M0 0 C4.95 0 9.9 0 15 0 C15 2.31 15 4.62 15 7 C10.05 7 5.1 7 0 7 C0 4.69 0 2.38 0 0 Z " fill="#524A4A" transform="translate(315,240)"/>
<path d="M0 0 C4.95 0 9.9 0 15 0 C15 2.31 15 4.62 15 7 C10.05 7 5.1 7 0 7 C0 4.69 0 2.38 0 0 Z " fill="#393131" transform="translate(232,240)"/>
<path d="M0 0 C2.31 0 4.62 0 7 0 C7 4.95 7 9.9 7 15 C4.69 15 2.38 15 0 15 C0 10.05 0 5.1 0 0 Z " fill="#393131" transform="translate(195,232)"/>
<path d="M0 0 C4.95 0 9.9 0 15 0 C15 2.31 15 4.62 15 7 C10.05 7 5.1 7 0 7 C0 4.69 0 2.38 0 0 Z " fill="#393131" transform="translate(202,225)"/>
<path d="M0 0 C4.95 0 9.9 0 15 0 C15 2.31 15 4.62 15 7 C10.05 7 5.1 7 0 7 C0 4.69 0 2.38 0 0 Z " fill="#FFFFFF" transform="translate(315,210)"/>
<path d="M0 0 C2.64 0 5.28 0 8 0 C8 2.64 8 5.28 8 8 C5.36 8 2.72 8 0 8 C0 5.36 0 2.72 0 0 Z " fill="#393131" transform="translate(367,367)"/>
<path d="M0 0 C2.64 0 5.28 0 8 0 C8 2.64 8 5.28 8 8 C5.36 8 2.72 8 0 8 C0 5.36 0 2.72 0 0 Z " fill="#393131" transform="translate(337,352)"/>
<path d="M0 0 C2.64 0 5.28 0 8 0 C8 2.64 8 5.28 8 8 C5.36 8 2.72 8 0 8 C0 5.36 0 2.72 0 0 Z " fill="#524A4A" transform="translate(247,352)"/>
<path d="M0 0 C2.64 0 5.28 0 8 0 C8 2.64 8 5.28 8 8 C5.36 8 2.72 8 0 8 C0 5.36 0 2.72 0 0 Z " fill="#101010" transform="translate(307,337)"/>
<path d="M0 0 C2.64 0 5.28 0 8 0 C8 2.64 8 5.28 8 8 C5.36 8 2.72 8 0 8 C0 5.36 0 2.72 0 0 Z " fill="#101010" transform="translate(292,337)"/>
<path d="M0 0 C2.64 0 5.28 0 8 0 C8 2.64 8 5.28 8 8 C5.36 8 2.72 8 0 8 C0 5.36 0 2.72 0 0 Z " fill="#8B8B8B" transform="translate(292,322)"/>
<path d="M0 0 C2.64 0 5.28 0 8 0 C8 2.64 8 5.28 8 8 C5.36 8 2.72 8 0 8 C0 5.36 0 2.72 0 0 Z " fill="#8BB4A4" transform="translate(292,307)"/>
<path d="M0 0 C2.64 0 5.28 0 8 0 C8 2.64 8 5.28 8 8 C5.36 8 2.72 8 0 8 C0 5.36 0 2.72 0 0 Z " fill="#8BB4A4" transform="translate(262,307)"/>
<path d="M0 0 C2.64 0 5.28 0 8 0 C8 2.64 8 5.28 8 8 C5.36 8 2.72 8 0 8 C0 5.36 0 2.72 0 0 Z " fill="#8B8B8B" transform="translate(232,307)"/>
<path d="M0 0 C2.64 0 5.28 0 8 0 C8 2.64 8 5.28 8 8 C5.36 8 2.72 8 0 8 C0 5.36 0 2.72 0 0 Z " fill="#8BB4A4" transform="translate(307,292)"/>
<path d="M0 0 C2.64 0 5.28 0 8 0 C8 2.64 8 5.28 8 8 C5.36 8 2.72 8 0 8 C0 5.36 0 2.72 0 0 Z " fill="#8BB4A4" transform="translate(247,292)"/>
<path d="M0 0 C2.64 0 5.28 0 8 0 C8 2.64 8 5.28 8 8 C5.36 8 2.72 8 0 8 C0 5.36 0 2.72 0 0 Z " fill="#8B8B8B" transform="translate(217,292)"/>
<path d="M0 0 C2.64 0 5.28 0 8 0 C8 2.64 8 5.28 8 8 C5.36 8 2.72 8 0 8 C0 5.36 0 2.72 0 0 Z " fill="#101010" transform="translate(337,262)"/>
<path d="M0 0 C2.64 0 5.28 0 8 0 C8 2.64 8 5.28 8 8 C5.36 8 2.72 8 0 8 C0 5.36 0 2.72 0 0 Z " fill="#8BB4A4" transform="translate(307,262)"/>
<path d="M0 0 C2.64 0 5.28 0 8 0 C8 2.64 8 5.28 8 8 C5.36 8 2.72 8 0 8 C0 5.36 0 2.72 0 0 Z " fill="#393131" transform="translate(247,247)"/>
<path d="M0 0 C2.64 0 5.28 0 8 0 C8 2.64 8 5.28 8 8 C5.36 8 2.72 8 0 8 C0 5.36 0 2.72 0 0 Z " fill="#8B8B8B" transform="translate(307,202)"/>
<path d="M0 0 C2.64 0 5.28 0 8 0 C8 2.31 8 4.62 8 7 C5.36 7 2.72 7 0 7 C0 4.69 0 2.38 0 0 Z " fill="#101010" transform="translate(397,375)"/>
<path d="M0 0 C2.31 0 4.62 0 7 0 C7 2.64 7 5.28 7 8 C4.69 8 2.38 8 0 8 C0 5.36 0 2.72 0 0 Z " fill="#524A4A" transform="translate(270,367)"/>
<path d="M0 0 C2.64 0 5.28 0 8 0 C8 2.31 8 4.62 8 7 C5.36 7 2.72 7 0 7 C0 4.69 0 2.38 0 0 Z " fill="#393131" transform="translate(352,360)"/>
<path d="M0 0 C2.31 0 4.62 0 7 0 C7 2.64 7 5.28 7 8 C4.69 8 2.38 8 0 8 C0 5.36 0 2.72 0 0 Z " fill="#101010" transform="translate(330,352)"/>
<path d="M0 0 C2.31 0 4.62 0 7 0 C7 2.64 7 5.28 7 8 C4.69 8 2.38 8 0 8 C0 5.36 0 2.72 0 0 Z " fill="#8BB4A4" transform="translate(285,352)"/>
<path d="M0 0 C2.64 0 5.28 0 8 0 C8 2.31 8 4.62 8 7 C5.36 7 2.72 7 0 7 C0 4.69 0 2.38 0 0 Z " fill="#B4B4B4" transform="translate(307,345)"/>
<path d="M0 0 C2.64 0 5.28 0 8 0 C8 2.31 8 4.62 8 7 C5.36 7 2.72 7 0 7 C0 4.69 0 2.38 0 0 Z " fill="#D5D5D5" transform="translate(292,345)"/>
<path d="M0 0 C2.31 0 4.62 0 7 0 C7 2.64 7 5.28 7 8 C4.69 8 2.38 8 0 8 C0 5.36 0 2.72 0 0 Z " fill="#393131" transform="translate(390,337)"/>
<path d="M0 0 C2.64 0 5.28 0 8 0 C8 2.31 8 4.62 8 7 C5.36 7 2.72 7 0 7 C0 4.69 0 2.38 0 0 Z " fill="#D5D5D5" transform="translate(307,330)"/>
<path d="M0 0 C2.64 0 5.28 0 8 0 C8 2.31 8 4.62 8 7 C5.36 7 2.72 7 0 7 C0 4.69 0 2.38 0 0 Z " fill="#D5D5D5" transform="translate(292,330)"/>
<path d="M0 0 C2.64 0 5.28 0 8 0 C8 2.31 8 4.62 8 7 C5.36 7 2.72 7 0 7 C0 4.69 0 2.38 0 0 Z " fill="#524A4A" transform="translate(232,330)"/>
<path d="M0 0 C2.64 0 5.28 0 8 0 C8 2.31 8 4.62 8 7 C5.36 7 2.72 7 0 7 C0 4.69 0 2.38 0 0 Z " fill="#393131" transform="translate(337,315)"/>
<path d="M0 0 C2.31 0 4.62 0 7 0 C7 2.64 7 5.28 7 8 C4.69 8 2.38 8 0 8 C0 5.36 0 2.72 0 0 Z " fill="#101010" transform="translate(210,307)"/>
<path d="M0 0 C2.64 0 5.28 0 8 0 C8 2.31 8 4.62 8 7 C5.36 7 2.72 7 0 7 C0 4.69 0 2.38 0 0 Z " fill="#D5D5D5" transform="translate(292,300)"/>
<path d="M0 0 C2.64 0 5.28 0 8 0 C8 2.31 8 4.62 8 7 C5.36 7 2.72 7 0 7 C0 4.69 0 2.38 0 0 Z " fill="#D5D5D5" transform="translate(262,300)"/>
<path d="M0 0 C2.31 0 4.62 0 7 0 C7 2.64 7 5.28 7 8 C4.69 8 2.38 8 0 8 C0 5.36 0 2.72 0 0 Z " fill="#D5D5D5" transform="translate(300,292)"/>
<path d="M0 0 C2.31 0 4.62 0 7 0 C7 2.64 7 5.28 7 8 C4.69 8 2.38 8 0 8 C0 5.36 0 2.72 0 0 Z " fill="#D5D5D5" transform="translate(255,292)"/>
<path d="M0 0 C2.64 0 5.28 0 8 0 C8 2.31 8 4.62 8 7 C5.36 7 2.72 7 0 7 C0 4.69 0 2.38 0 0 Z " fill="#524A4A" transform="translate(352,285)"/>
<path d="M0 0 C2.64 0 5.28 0 8 0 C8 2.31 8 4.62 8 7 C5.36 7 2.72 7 0 7 C0 4.69 0 2.38 0 0 Z " fill="#5A8362" transform="translate(247,285)"/>
<path d="M0 0 C2.64 0 5.28 0 8 0 C8 2.31 8 4.62 8 7 C5.36 7 2.72 7 0 7 C0 4.69 0 2.38 0 0 Z " fill="#101010" transform="translate(202,285)"/>
<path d="M0 0 C2.31 0 4.62 0 7 0 C7 2.64 7 5.28 7 8 C4.69 8 2.38 8 0 8 C0 5.36 0 2.72 0 0 Z " fill="#101010" transform="translate(270,277)"/>
<path d="M0 0 C2.31 0 4.62 0 7 0 C7 2.64 7 5.28 7 8 C4.69 8 2.38 8 0 8 C0 5.36 0 2.72 0 0 Z " fill="#D5D5D5" transform="translate(300,262)"/>
<path d="M0 0 C2.31 0 4.62 0 7 0 C7 2.64 7 5.28 7 8 C4.69 8 2.38 8 0 8 C0 5.36 0 2.72 0 0 Z " fill="#D5D5D5" transform="translate(255,262)"/>
<path d="M0 0 C2.64 0 5.28 0 8 0 C8 2.31 8 4.62 8 7 C5.36 7 2.72 7 0 7 C0 4.69 0 2.38 0 0 Z " fill="#D5D5D5" transform="translate(292,255)"/>
<path d="M0 0 C2.64 0 5.28 0 8 0 C8 2.31 8 4.62 8 7 C5.36 7 2.72 7 0 7 C0 4.69 0 2.38 0 0 Z " fill="#5A8362" transform="translate(247,255)"/>
<path d="M0 0 C2.31 0 4.62 0 7 0 C7 2.64 7 5.28 7 8 C4.69 8 2.38 8 0 8 C0 5.36 0 2.72 0 0 Z " fill="#D5F6DE" transform="translate(300,247)"/>
<path d="M0 0 C2.64 0 5.28 0 8 0 C8 2.31 8 4.62 8 7 C5.36 7 2.72 7 0 7 C0 4.69 0 2.38 0 0 Z " fill="#524A4A" transform="translate(352,225)"/>
<path d="M0 0 C2.64 0 5.28 0 8 0 C8 2.31 8 4.62 8 7 C5.36 7 2.72 7 0 7 C0 4.69 0 2.38 0 0 Z " fill="#B4B4B4" transform="translate(337,225)"/>
<path d="M0 0 C2.31 0 4.62 0 7 0 C7 2.64 7 5.28 7 8 C4.69 8 2.38 8 0 8 C0 5.36 0 2.72 0 0 Z " fill="#524A4A" transform="translate(300,217)"/>
<path d="M0 0 C2.64 0 5.28 0 8 0 C8 2.31 8 4.62 8 7 C5.36 7 2.72 7 0 7 C0 4.69 0 2.38 0 0 Z " fill="#8B8B8B" transform="translate(337,210)"/>
<path d="M0 0 C2.31 0 4.62 0 7 0 C7 2.31 7 4.62 7 7 C4.69 7 2.38 7 0 7 C0 4.69 0 2.38 0 0 Z " fill="#101010" transform="translate(255,360)"/>
<path d="M0 0 C2.31 0 4.62 0 7 0 C7 2.31 7 4.62 7 7 C4.69 7 2.38 7 0 7 C0 4.69 0 2.38 0 0 Z " fill="#101010" transform="translate(420,345)"/>
<path d="M0 0 C2.31 0 4.62 0 7 0 C7 2.31 7 4.62 7 7 C4.69 7 2.38 7 0 7 C0 4.69 0 2.38 0 0 Z " fill="#101010" transform="translate(300,345)"/>
<path d="M0 0 C2.31 0 4.62 0 7 0 C7 2.31 7 4.62 7 7 C4.69 7 2.38 7 0 7 C0 4.69 0 2.38 0 0 Z " fill="#101010" transform="translate(240,345)"/>
<path d="M0 0 C2.31 0 4.62 0 7 0 C7 2.31 7 4.62 7 7 C4.69 7 2.38 7 0 7 C0 4.69 0 2.38 0 0 Z " fill="#393131" transform="translate(360,330)"/>
<path d="M0 0 C2.31 0 4.62 0 7 0 C7 2.31 7 4.62 7 7 C4.69 7 2.38 7 0 7 C0 4.69 0 2.38 0 0 Z " fill="#8B8B8B" transform="translate(285,330)"/>
<path d="M0 0 C2.31 0 4.62 0 7 0 C7 2.31 7 4.62 7 7 C4.69 7 2.38 7 0 7 C0 4.69 0 2.38 0 0 Z " fill="#B4B4B4" transform="translate(210,315)"/>
<path d="M0 0 C2.31 0 4.62 0 7 0 C7 2.31 7 4.62 7 7 C4.69 7 2.38 7 0 7 C0 4.69 0 2.38 0 0 Z " fill="#5A8362" transform="translate(300,300)"/>
<path d="M0 0 C2.31 0 4.62 0 7 0 C7 2.31 7 4.62 7 7 C4.69 7 2.38 7 0 7 C0 4.69 0 2.38 0 0 Z " fill="#5A8362" transform="translate(255,300)"/>
<path d="M0 0 C2.31 0 4.62 0 7 0 C7 2.31 7 4.62 7 7 C4.69 7 2.38 7 0 7 C0 4.69 0 2.38 0 0 Z " fill="#101010" transform="translate(225,285)"/>
<path d="M0 0 C2.31 0 4.62 0 7 0 C7 2.31 7 4.62 7 7 C4.69 7 2.38 7 0 7 C0 4.69 0 2.38 0 0 Z " fill="#524A4A" transform="translate(345,270)"/>
<path d="M0 0 C2.31 0 4.62 0 7 0 C7 2.31 7 4.62 7 7 C4.69 7 2.38 7 0 7 C0 4.69 0 2.38 0 0 Z " fill="#101010" transform="translate(330,255)"/>
<path d="M0 0 C2.31 0 4.62 0 7 0 C7 2.31 7 4.62 7 7 C4.69 7 2.38 7 0 7 C0 4.69 0 2.38 0 0 Z " fill="#5A8362" transform="translate(300,255)"/>
<path d="M0 0 C2.31 0 4.62 0 7 0 C7 2.31 7 4.62 7 7 C4.69 7 2.38 7 0 7 C0 4.69 0 2.38 0 0 Z " fill="#8BB4A4" transform="translate(255,255)"/>
<path d="M0 0 C2.31 0 4.62 0 7 0 C7 2.31 7 4.62 7 7 C4.69 7 2.38 7 0 7 C0 4.69 0 2.38 0 0 Z " fill="#8B8B8B" transform="translate(315,240)"/>
<path d="M0 0 C2.31 0 4.62 0 7 0 C7 2.31 7 4.62 7 7 C4.69 7 2.38 7 0 7 C0 4.69 0 2.38 0 0 Z " fill="#B4B4B4" transform="translate(330,210)"/>
<path d="M0 0 C2.31 0 4.62 0 7 0 C7 2.31 7 4.62 7 7 C4.69 7 2.38 7 0 7 C0 4.69 0 2.38 0 0 Z " fill="#8B8B8B" transform="translate(300,210)"/>
</svg>
